<?xml version="1.0" encoding="UTF-8" standalone="no"?>
<!-- Created with Inkscape (http://www.inkscape.org/) -->

<svg
   xmlns:dc="http://purl.org/dc/elements/1.1/"
   xmlns:cc="http://creativecommons.org/ns#"
   xmlns:rdf="http://www.w3.org/1999/02/22-rdf-syntax-ns#"
   xmlns:svg="http://www.w3.org/2000/svg"
   xmlns="http://www.w3.org/2000/svg"
   xmlns:sodipodi="http://sodipodi.sourceforge.net/DTD/sodipodi-0.dtd"
   xmlns:inkscape="http://www.inkscape.org/namespaces/inkscape"
   width="1488.189"
   height="1052.3622"
   id="svg2"
   version="1.1"
   inkscape:version="0.48.4 r9939"
   sodipodi:docname="fullbox_base_1_line.svg">
  <defs
     id="defs4" />
  <sodipodi:namedview
     id="base"
     pagecolor="#ffffff"
     bordercolor="#666666"
     borderopacity="1.0"
     inkscape:pageopacity="0.0"
     inkscape:pageshadow="2"
     inkscape:zoom="0.47392289"
     inkscape:cx="387.42444"
     inkscape:cy="424.10199"
     inkscape:document-units="mm"
     inkscape:current-layer="layer1"
     showgrid="true"
     inkscape:window-width="1366"
     inkscape:window-height="706"
     inkscape:window-x="-8"
     inkscape:window-y="-8"
     inkscape:window-maximized="1"
     inkscape:snap-grids="true"
     showguides="true"
     inkscape:guide-bbox="true"
     units="mm"
     fit-margin-top="0"
     fit-margin-left="0"
     fit-margin-right="0"
     fit-margin-bottom="0"
     inkscape:snap-page="false"
     inkscape:object-paths="true">
    <inkscape:grid
       type="xygrid"
       id="grid3021"
       empspacing="1"
       visible="true"
       enabled="true"
       snapvisiblegridlinesonly="true"
       originx="28.698472mm"
       originy="-7.3862845e-007mm"
       units="mm"
       spacingx="2mm"
       spacingy="2mm"
       dotted="false" />
  </sodipodi:namedview>
  <metadata
     id="metadata7">
    <rdf:RDF>
      <cc:Work
         rdf:about="">
        <dc:format>image/svg+xml</dc:format>
        <dc:type
           rdf:resource="http://purl.org/dc/dcmitype/StillImage" />
        <dc:title></dc:title>
      </cc:Work>
    </rdf:RDF>
  </metadata>
  <g
     inkscape:groupmode="layer"
     id="layer3"
     inkscape:label="マーキング"
     style="display:none">
    <rect
       transform="translate(-568.5,408.98718)"
       style="fill:#05ffff;fill-opacity:1;stroke:#000000;stroke-width:1.4858216;stroke-opacity:1;display:inline"
       id="rect3881"
       width="318.99402"
       height="265.75537"
       x="1091.5052"
       y="-35.563" />
  </g>
  <g
     inkscape:label="カードケース"
     inkscape:groupmode="layer"
     id="layer1"
     transform="translate(-568.5,408.98718)"
     style="display:inline">
    <path
       inkscape:connector-curvature="0"
       style="fill:none;stroke:#000000;stroke-width:1.00440371;stroke-linecap:butt;stroke-linejoin:miter;stroke-miterlimit:10;stroke-opacity:1"
       d="m 645.85126,112.93176 53.14941,0 0,-8.14942 118.7012,0 0,30.11719 -5.3174,0 0,7.08496 21.2598,0 0,-7.08496 -5.3174,0 0,-30.11719 118.7012,0 0,8.14942 53.14943,0 0,70.86426 -8.85743,0 0,106.29885 8.85743,0 0,70.86426 -53.14943,0 0,8.14942 -118.7012,0 0,-30.1172 5.3174,0 0,-7.08496 -21.2598,0 0,7.08496 5.3174,0 0,30.1172 -118.7012,0 0,-8.14942 -53.14941,0 0,-70.86426 8.85742,0 0,-106.29885 -8.85742,0 0,-70.86426"
       id="path2988" />
    <path
       inkscape:connector-curvature="0"
       style="fill:none;stroke:#000000;stroke-width:1.00440371;stroke-linecap:butt;stroke-linejoin:miter;stroke-miterlimit:10;stroke-opacity:1"
       d="m 702.94975,86.127217 0,-31.8896 -8.14942,0 0,-47.8370297 30.11719,0 0,5.3173997 7.08496,0 0,-21.2596997 -7.08496,0 0,5.3173 -30.11719,0 0,-47.8369003 8.14942,0 0,-31.889603 70.86426,0 0,-8.8575 106.29884,0 0,8.8575 70.8643,0 0,31.889603 8.1494,0 0,47.8369003 -30.1172,0 0,-5.3173 -7.085,0 0,21.2596997 7.085,0 0,-5.3173997 30.1172,0 0,47.8370297 -8.1494,0 0,31.8896 -70.8643,0 0,8.8574 -106.29884,0 0,-8.8574 -70.86426,0"
       id="path2994" />
    <flowRoot
       xml:space="preserve"
       id="flowRoot3809"
       style="font-size:24px;font-style:normal;font-weight:normal;line-height:125%;letter-spacing:0px;word-spacing:0px;fill:#000000;fill-opacity:1;stroke:none;font-family:Sans"
       transform="translate(0,-2.2302535e-5)"><flowRegion
         id="flowRegion3811"><rect
           id="rect3813"
           width="228.40454"
           height="67.580368"
           x="793.85547"
           y="233.69872"
           style="font-size:24px" /></flowRegion><flowPara
         id="flowPara3815" /></flowRoot>    <flowRoot
       xml:space="preserve"
       id="flowRoot3819"
       style="font-size:24px;font-style:normal;font-weight:normal;line-height:125%;letter-spacing:0px;word-spacing:0px;fill:#000000;fill-opacity:1;stroke:none;font-family:Sans"
       transform="translate(0,-2.2302535e-5)"><flowRegion
         id="flowRegion3821"><rect
           id="rect3823"
           width="134.3053"
           height="41.916939"
           x="791.28912"
           y="214.02342"
           style="font-size:24px" /></flowRegion><flowPara
         id="flowPara3825"></flowPara></flowRoot>    <g
       id="g4354"
       transform="translate(-131.29857,7.4601459)">
      <path
         sodipodi:nodetypes="ccccccccccccccccccccccccccccccccc"
         id="path2990"
         d="m 726.88041,371.89083 570.78079,0.37597 0,-8.14942 118.7012,0 0,30.11719 -5.3174,0 0,7.08496 21.2598,0 0,-7.08496 -5.3174,0 0,-30.11719 118.7012,0 0,8.14942 53.1494,0 0,70.86426 -8.8574,0 0,106.29885 8.8574,0 0,70.86426 -53.1494,0 0,8.14942 -118.7012,0 0,-30.1172 5.3174,0 0,-7.08496 -21.2598,0 0,7.08496 5.3174,0 0,30.1172 -118.7012,0 0,-8.14942 -570.78079,-0.3235 c -19.48447,-100.55237 -18.81985,-150.94926 0,-248.07984"
         style="fill:none;stroke:#000000;stroke-width:1.00440371;stroke-linecap:butt;stroke-linejoin:miter;stroke-miterlimit:10;stroke-opacity:1"
         inkscape:connector-curvature="0" />
      <path
         inkscape:connector-curvature="0"
         id="path3910"
         d="m 1267.0322,404.80934 0,184.25197"
         style="fill:none;stroke:#000000;stroke-width:1px;stroke-linecap:butt;stroke-linejoin:miter;stroke-opacity:1" />
      <path
         sodipodi:nodetypes="cc"
         inkscape:connector-curvature="0"
         id="path3912"
         d="m 1259.9458,372.24639 -2e-4,96.34248"
         style="fill:none;stroke:#000000;stroke-width:1px;stroke-linecap:butt;stroke-linejoin:miter;stroke-opacity:1" />
      <path
         sodipodi:nodetypes="cc"
         inkscape:connector-curvature="0"
         id="path3912-4"
         d="m 1259.9456,525.28178 10e-5,94.99483"
         style="fill:none;stroke:#000000;stroke-width:1px;stroke-linecap:butt;stroke-linejoin:miter;stroke-opacity:1;display:inline" />
      <path
         inkscape:connector-curvature="0"
         id="path3910-2"
         d="m 1252.8702,404.74054 0,184.25197"
         style="fill:none;stroke:#000000;stroke-width:1px;stroke-linecap:butt;stroke-linejoin:miter;stroke-opacity:1;display:inline" />
      <path
         sodipodi:nodetypes="cc"
         inkscape:connector-curvature="0"
         id="path3912-45"
         d="m 1245.7838,372.17759 -2e-4,96.34248"
         style="fill:none;stroke:#000000;stroke-width:1px;stroke-linecap:butt;stroke-linejoin:miter;stroke-opacity:1;display:inline" />
      <path
         sodipodi:nodetypes="cc"
         inkscape:connector-curvature="0"
         id="path3912-4-5"
         d="m 1245.7836,525.21298 10e-5,94.99483"
         style="fill:none;stroke:#000000;stroke-width:1px;stroke-linecap:butt;stroke-linejoin:miter;stroke-opacity:1;display:inline" />
      <path
         inkscape:connector-curvature="0"
         id="path3910-1"
         d="m 1238.7472,404.65552 0,184.25197"
         style="fill:none;stroke:#000000;stroke-width:1px;stroke-linecap:butt;stroke-linejoin:miter;stroke-opacity:1;display:inline" />
      <path
         sodipodi:nodetypes="cc"
         inkscape:connector-curvature="0"
         id="path3912-7"
         d="m 1231.6608,372.09257 -2e-4,96.34248"
         style="fill:none;stroke:#000000;stroke-width:1px;stroke-linecap:butt;stroke-linejoin:miter;stroke-opacity:1;display:inline" />
      <path
         sodipodi:nodetypes="cc"
         inkscape:connector-curvature="0"
         id="path3912-4-1"
         d="m 1231.6606,525.12796 10e-5,94.99483"
         style="fill:none;stroke:#000000;stroke-width:1px;stroke-linecap:butt;stroke-linejoin:miter;stroke-opacity:1;display:inline" />
      <path
         inkscape:connector-curvature="0"
         id="path3910-15"
         d="m 1224.5024,404.64538 0,184.25196"
         style="fill:none;stroke:#000000;stroke-width:1px;stroke-linecap:butt;stroke-linejoin:miter;stroke-opacity:1;display:inline" />
      <path
         sodipodi:nodetypes="cc"
         inkscape:connector-curvature="0"
         id="path3912-2"
         d="m 1217.416,372.08242 -2e-4,96.34249"
         style="fill:none;stroke:#000000;stroke-width:1px;stroke-linecap:butt;stroke-linejoin:miter;stroke-opacity:1;display:inline" />
      <path
         sodipodi:nodetypes="cc"
         inkscape:connector-curvature="0"
         id="path3912-4-7"
         d="m 1217.4158,525.11782 10e-5,94.99482"
         style="fill:none;stroke:#000000;stroke-width:1px;stroke-linecap:butt;stroke-linejoin:miter;stroke-opacity:1;display:inline" />
      <path
         inkscape:connector-curvature="0"
         id="path3910-6"
         d="m 1210.3393,404.63524 0,184.25197"
         style="fill:none;stroke:#000000;stroke-width:1px;stroke-linecap:butt;stroke-linejoin:miter;stroke-opacity:1;display:inline" />
      <path
         sodipodi:nodetypes="cc"
         inkscape:connector-curvature="0"
         id="path3912-1"
         d="m 1203.2529,372.07229 -2e-4,96.34248"
         style="fill:none;stroke:#000000;stroke-width:1px;stroke-linecap:butt;stroke-linejoin:miter;stroke-opacity:1;display:inline" />
      <path
         sodipodi:nodetypes="cc"
         inkscape:connector-curvature="0"
         id="path3912-4-4"
         d="m 1203.2527,525.10768 10e-5,94.99483"
         style="fill:none;stroke:#000000;stroke-width:1px;stroke-linecap:butt;stroke-linejoin:miter;stroke-opacity:1;display:inline" />
      <path
         inkscape:connector-curvature="0"
         id="path3910-23"
         d="m 1196.0331,404.77834 0,184.25198"
         style="fill:none;stroke:#000000;stroke-width:1px;stroke-linecap:butt;stroke-linejoin:miter;stroke-opacity:1;display:inline" />
      <path
         sodipodi:nodetypes="cc"
         inkscape:connector-curvature="0"
         id="path3912-22"
         d="m 1188.9467,372.2154 -2e-4,96.34247"
         style="fill:none;stroke:#000000;stroke-width:1px;stroke-linecap:butt;stroke-linejoin:miter;stroke-opacity:1;display:inline" />
      <path
         sodipodi:nodetypes="cc"
         inkscape:connector-curvature="0"
         id="path3912-4-16"
         d="m 1188.9464,525.25078 10e-5,94.99484"
         style="fill:none;stroke:#000000;stroke-width:1px;stroke-linecap:butt;stroke-linejoin:miter;stroke-opacity:1;display:inline" />
      <path
         inkscape:connector-curvature="0"
         id="path3910-8"
         d="m 1182.1676,404.88089 0,184.25198"
         style="fill:none;stroke:#000000;stroke-width:1px;stroke-linecap:butt;stroke-linejoin:miter;stroke-opacity:1;display:inline" />
      <path
         sodipodi:nodetypes="cc"
         inkscape:connector-curvature="0"
         id="path3912-5"
         d="m 1175.0812,372.31794 -2e-4,96.34248"
         style="fill:none;stroke:#000000;stroke-width:1px;stroke-linecap:butt;stroke-linejoin:miter;stroke-opacity:1;display:inline" />
      <path
         sodipodi:nodetypes="cc"
         inkscape:connector-curvature="0"
         id="path3912-4-76"
         d="m 1175.0809,525.35334 10e-5,94.99483"
         style="fill:none;stroke:#000000;stroke-width:1px;stroke-linecap:butt;stroke-linejoin:miter;stroke-opacity:1;display:inline" />
      <path
         inkscape:connector-curvature="0"
         id="path3910-2-1"
         d="m 1168.0055,404.81209 0,184.25198"
         style="fill:none;stroke:#000000;stroke-width:1px;stroke-linecap:butt;stroke-linejoin:miter;stroke-opacity:1;display:inline" />
      <path
         sodipodi:nodetypes="cc"
         inkscape:connector-curvature="0"
         id="path3912-45-8"
         d="m 1160.9191,372.24914 -2e-4,96.34248"
         style="fill:none;stroke:#000000;stroke-width:1px;stroke-linecap:butt;stroke-linejoin:miter;stroke-opacity:1;display:inline" />
      <path
         sodipodi:nodetypes="cc"
         inkscape:connector-curvature="0"
         id="path3912-4-5-9"
         d="m 1160.9189,525.28454 1e-4,94.99483"
         style="fill:none;stroke:#000000;stroke-width:1px;stroke-linecap:butt;stroke-linejoin:miter;stroke-opacity:1;display:inline" />
      <path
         inkscape:connector-curvature="0"
         id="path3910-1-2"
         d="m 1153.8825,404.72707 0,184.25198"
         style="fill:none;stroke:#000000;stroke-width:1px;stroke-linecap:butt;stroke-linejoin:miter;stroke-opacity:1;display:inline" />
      <path
         sodipodi:nodetypes="cc"
         inkscape:connector-curvature="0"
         id="path3912-7-7"
         d="m 1146.7961,372.16412 -2e-4,96.34248"
         style="fill:none;stroke:#000000;stroke-width:1px;stroke-linecap:butt;stroke-linejoin:miter;stroke-opacity:1;display:inline" />
      <path
         sodipodi:nodetypes="cc"
         inkscape:connector-curvature="0"
         id="path3912-4-1-9"
         d="m 1146.7959,525.19952 10e-5,94.99483"
         style="fill:none;stroke:#000000;stroke-width:1px;stroke-linecap:butt;stroke-linejoin:miter;stroke-opacity:1;display:inline" />
      <path
         inkscape:connector-curvature="0"
         id="path3910-15-5"
         d="m 1139.6377,404.71693 0,184.25197"
         style="fill:none;stroke:#000000;stroke-width:1px;stroke-linecap:butt;stroke-linejoin:miter;stroke-opacity:1;display:inline" />
      <path
         sodipodi:nodetypes="cc"
         inkscape:connector-curvature="0"
         id="path3912-2-4"
         d="m 1132.5513,372.15398 -2e-4,96.34248"
         style="fill:none;stroke:#000000;stroke-width:1px;stroke-linecap:butt;stroke-linejoin:miter;stroke-opacity:1;display:inline" />
      <path
         sodipodi:nodetypes="cc"
         inkscape:connector-curvature="0"
         id="path3912-4-7-3"
         d="m 1132.5511,525.18938 1e-4,94.99482"
         style="fill:none;stroke:#000000;stroke-width:1px;stroke-linecap:butt;stroke-linejoin:miter;stroke-opacity:1;display:inline" />
      <path
         inkscape:connector-curvature="0"
         id="path3910-6-1"
         d="m 1125.4746,404.70679 0,184.25198"
         style="fill:none;stroke:#000000;stroke-width:1px;stroke-linecap:butt;stroke-linejoin:miter;stroke-opacity:1;display:inline" />
      <path
         sodipodi:nodetypes="cc"
         inkscape:connector-curvature="0"
         id="path3912-1-2"
         d="m 1118.3882,372.14384 -2e-4,96.34248"
         style="fill:none;stroke:#000000;stroke-width:1px;stroke-linecap:butt;stroke-linejoin:miter;stroke-opacity:1;display:inline" />
      <path
         sodipodi:nodetypes="cc"
         inkscape:connector-curvature="0"
         id="path3912-4-4-3"
         d="m 1118.388,525.17924 10e-5,94.99483"
         style="fill:none;stroke:#000000;stroke-width:1px;stroke-linecap:butt;stroke-linejoin:miter;stroke-opacity:1;display:inline" />
      <path
         inkscape:connector-curvature="0"
         id="path3910-23-3"
         d="m 1111.1684,404.84989 0,184.25199"
         style="fill:none;stroke:#000000;stroke-width:1px;stroke-linecap:butt;stroke-linejoin:miter;stroke-opacity:1;display:inline" />
      <path
         sodipodi:nodetypes="cc"
         inkscape:connector-curvature="0"
         id="path3912-22-4"
         d="m 1104.082,372.28695 -2e-4,96.34247"
         style="fill:none;stroke:#000000;stroke-width:1px;stroke-linecap:butt;stroke-linejoin:miter;stroke-opacity:1;display:inline" />
      <path
         sodipodi:nodetypes="cc"
         inkscape:connector-curvature="0"
         id="path3912-4-16-1"
         d="m 1104.0817,525.32234 10e-5,94.99484"
         style="fill:none;stroke:#000000;stroke-width:1px;stroke-linecap:butt;stroke-linejoin:miter;stroke-opacity:1;display:inline" />
      <path
         inkscape:connector-curvature="0"
         id="path3910-13"
         d="m 1097.4753,404.8499 0,184.25196"
         style="fill:none;stroke:#000000;stroke-width:1px;stroke-linecap:butt;stroke-linejoin:miter;stroke-opacity:1;display:inline" />
      <path
         sodipodi:nodetypes="cc"
         inkscape:connector-curvature="0"
         id="path3912-8"
         d="m 1090.3889,372.28694 -2e-4,96.34249"
         style="fill:none;stroke:#000000;stroke-width:1px;stroke-linecap:butt;stroke-linejoin:miter;stroke-opacity:1;display:inline" />
      <path
         sodipodi:nodetypes="cc"
         inkscape:connector-curvature="0"
         id="path3912-4-74"
         d="m 1090.3887,525.32234 10e-5,94.99482"
         style="fill:none;stroke:#000000;stroke-width:1px;stroke-linecap:butt;stroke-linejoin:miter;stroke-opacity:1;display:inline" />
      <path
         inkscape:connector-curvature="0"
         id="path3910-2-2"
         d="m 1083.3133,404.7811 0,184.25196"
         style="fill:none;stroke:#000000;stroke-width:1px;stroke-linecap:butt;stroke-linejoin:miter;stroke-opacity:1;display:inline" />
      <path
         sodipodi:nodetypes="cc"
         inkscape:connector-curvature="0"
         id="path3912-45-7"
         d="m 1076.2269,372.21814 -2e-4,96.34249"
         style="fill:none;stroke:#000000;stroke-width:1px;stroke-linecap:butt;stroke-linejoin:miter;stroke-opacity:1;display:inline" />
      <path
         sodipodi:nodetypes="cc"
         inkscape:connector-curvature="0"
         id="path3912-4-5-7"
         d="m 1076.2267,525.25354 10e-5,94.99482"
         style="fill:none;stroke:#000000;stroke-width:1px;stroke-linecap:butt;stroke-linejoin:miter;stroke-opacity:1;display:inline" />
      <path
         inkscape:connector-curvature="0"
         id="path3910-1-9"
         d="m 1069.1903,404.69608 0,184.25196"
         style="fill:none;stroke:#000000;stroke-width:1px;stroke-linecap:butt;stroke-linejoin:miter;stroke-opacity:1;display:inline" />
      <path
         sodipodi:nodetypes="cc"
         inkscape:connector-curvature="0"
         id="path3912-7-3"
         d="m 1062.1039,372.13312 -2e-4,96.34249"
         style="fill:none;stroke:#000000;stroke-width:1px;stroke-linecap:butt;stroke-linejoin:miter;stroke-opacity:1;display:inline" />
      <path
         sodipodi:nodetypes="cc"
         inkscape:connector-curvature="0"
         id="path3912-4-1-1"
         d="m 1062.1037,525.16852 1e-4,94.99482"
         style="fill:none;stroke:#000000;stroke-width:1px;stroke-linecap:butt;stroke-linejoin:miter;stroke-opacity:1;display:inline" />
      <path
         inkscape:connector-curvature="0"
         id="path3910-15-9"
         d="m 1054.9455,404.68594 0,184.25195"
         style="fill:none;stroke:#000000;stroke-width:1px;stroke-linecap:butt;stroke-linejoin:miter;stroke-opacity:1;display:inline" />
      <path
         sodipodi:nodetypes="cc"
         inkscape:connector-curvature="0"
         id="path3912-2-8"
         d="m 1047.8591,372.12298 -2e-4,96.34249"
         style="fill:none;stroke:#000000;stroke-width:1px;stroke-linecap:butt;stroke-linejoin:miter;stroke-opacity:1;display:inline" />
      <path
         sodipodi:nodetypes="cc"
         inkscape:connector-curvature="0"
         id="path3912-4-7-6"
         d="m 1047.8589,525.15838 10e-5,94.99481"
         style="fill:none;stroke:#000000;stroke-width:1px;stroke-linecap:butt;stroke-linejoin:miter;stroke-opacity:1;display:inline" />
      <path
         inkscape:connector-curvature="0"
         id="path3910-6-5"
         d="m 1040.7824,404.6758 0,184.25196"
         style="fill:none;stroke:#000000;stroke-width:1px;stroke-linecap:butt;stroke-linejoin:miter;stroke-opacity:1;display:inline" />
      <path
         sodipodi:nodetypes="cc"
         inkscape:connector-curvature="0"
         id="path3912-1-0"
         d="m 1033.696,372.11284 -2e-4,96.34249"
         style="fill:none;stroke:#000000;stroke-width:1px;stroke-linecap:butt;stroke-linejoin:miter;stroke-opacity:1;display:inline" />
      <path
         sodipodi:nodetypes="cc"
         inkscape:connector-curvature="0"
         id="path3912-4-4-2"
         d="m 1033.6958,525.14824 10e-5,94.99482"
         style="fill:none;stroke:#000000;stroke-width:1px;stroke-linecap:butt;stroke-linejoin:miter;stroke-opacity:1;display:inline" />
      <path
         inkscape:connector-curvature="0"
         id="path3910-23-8"
         d="m 1026.4762,404.8189 0,184.25197"
         style="fill:none;stroke:#000000;stroke-width:1px;stroke-linecap:butt;stroke-linejoin:miter;stroke-opacity:1;display:inline" />
      <path
         sodipodi:nodetypes="cc"
         inkscape:connector-curvature="0"
         id="path3912-22-6"
         d="m 1019.3898,372.25595 -2e-4,96.34248"
         style="fill:none;stroke:#000000;stroke-width:1px;stroke-linecap:butt;stroke-linejoin:miter;stroke-opacity:1;display:inline" />
      <path
         sodipodi:nodetypes="cc"
         inkscape:connector-curvature="0"
         id="path3912-4-16-0"
         d="m 1019.3895,525.29134 10e-5,94.99483"
         style="fill:none;stroke:#000000;stroke-width:1px;stroke-linecap:butt;stroke-linejoin:miter;stroke-opacity:1;display:inline" />
      <path
         inkscape:connector-curvature="0"
         id="path3910-24"
         d="m 1012.037,404.77834 0,184.25198"
         style="fill:none;stroke:#000000;stroke-width:1px;stroke-linecap:butt;stroke-linejoin:miter;stroke-opacity:1;display:inline" />
    </g>
  </g>
  <g
     inkscape:groupmode="layer"
     id="layer2"
     inkscape:label="文字">
    <g
       id="g4271"
       transform="translate(-318.91327,165.60679)">
      <path
         id="path3006"
         d="m 1377.5883,-253.73527 354.3311,0 c 5.3125,0 10.6299,5.31738 10.6299,10.62988 l 0,187.792992 c 0,5.31739 -5.3174,10.62989 -10.6299,10.62989 l -354.3311,0 c -5.3174,0 -10.6299,-5.3125 -10.6299,-10.62989 l 0,-187.792992 c 0,-5.3125 5.3125,-10.62988 10.6299,-10.62988 z"
         style="fill:none;stroke:#000000;stroke-width:1.00440371;stroke-linecap:butt;stroke-linejoin:miter;stroke-miterlimit:10;stroke-opacity:1;display:inline"
         inkscape:connector-curvature="0"
         transform="translate(-568.5,408.98718)" />
      <path
         id="path3008"
         d="m 1430.7377,-243.10539 248.0323,0 0,8.85742 -248.0323,0 z m 0,178.935572 248.0323,0 0,8.85742 -248.0323,0 z m -53.1494,-138.188492 8.8574,0 0,106.298842 -8.8574,0 z m 345.4737,0 8.8574,0 0,106.298842 -8.8574,0 z"
         style="fill:none;stroke:#000000;stroke-width:1.00440371;stroke-linecap:butt;stroke-linejoin:miter;stroke-miterlimit:10;stroke-opacity:1;display:inline"
         inkscape:connector-curvature="0"
         transform="translate(-568.5,408.98718)" />
      <path
         id="path3010"
         d="m 1732.8032,-149.20889 c 0,7.08984 -10.6299,7.08984 -10.6299,0 0,-7.08497 10.6299,-7.08497 10.6299,0"
         style="fill:none;stroke:#000000;stroke-width:1.00440371;stroke-linecap:butt;stroke-linejoin:miter;stroke-miterlimit:10;stroke-opacity:1;display:inline"
         inkscape:connector-curvature="0"
         transform="translate(-568.5,408.98718)" />
      <path
         id="path3012"
         d="m 1560.0688,-238.67668 c 0,7.08496 -10.6299,7.08496 -10.6299,0 0,-7.08496 10.6299,-7.08496 10.6299,0"
         style="fill:none;stroke:#000000;stroke-width:1.00440371;stroke-linecap:butt;stroke-linejoin:miter;stroke-miterlimit:10;stroke-opacity:1;display:inline"
         inkscape:connector-curvature="0"
         transform="translate(-568.5,408.98718)" />
      <path
         id="path3014"
         d="m 1560.0688,-59.741108 c 0,7.08985 -10.6299,7.08985 -10.6299,0 0,-7.08496 10.6299,-7.08496 10.6299,0"
         style="fill:none;stroke:#000000;stroke-width:1.00440371;stroke-linecap:butt;stroke-linejoin:miter;stroke-miterlimit:10;stroke-opacity:1;display:inline"
         inkscape:connector-curvature="0"
         transform="translate(-568.5,408.98718)" />
      <flowRoot
         transform="translate(67.5924,27.12511)"
         style="font-size:40px;font-style:normal;font-weight:normal;line-height:125%;letter-spacing:0px;word-spacing:0px;fill:#000000;fill-opacity:1;stroke:none;display:inline;font-family:Sans"
         id="flowRoot3827"
         xml:space="preserve"><flowRegion
           id="flowRegion3829"><rect
             y="201.77251"
             x="759.92188"
             height="60.000008"
             width="320"
             id="rect3831" /></flowRegion><flowPara
           style="font-size:24px;font-weight:bold;text-align:center;text-anchor:middle;-inkscape-font-specification:Sans Bold"
           id="flowPara3833">Open Design Games</flowPara></flowRoot>      <flowRoot
         xml:space="preserve"
         id="flowRoot3835"
         style="font-size:40px;font-style:normal;font-weight:normal;line-height:125%;letter-spacing:0px;word-spacing:0px;fill:#000000;fill-opacity:1;stroke:none;display:inline;font-family:Sans"
         transform="translate(67.5924,27.12511)"><flowRegion
           id="flowRegion3837"><rect
             id="rect3839"
             width="320"
             height="60.000008"
             x="759.92188"
             y="201.77251" /></flowRegion><flowPara
           id="flowPara3841"
           style="font-size:24px;font-weight:bold;text-align:center;text-anchor:middle;-inkscape-font-specification:Sans Bold">Open Design Games</flowPara></flowRoot>    </g>
    <g
       id="g4251"
       transform="translate(-318.89767,-106.29921)">
      <path
         id="path2996"
         d="m 1377.5883,238.78427 354.3311,0 c 5.3125,0 10.6299,5.31738 10.6299,10.62988 l 0,187.79787 c 0,5.3125 -5.3174,10.62989 -10.6299,10.62989 l -354.3311,0 c -5.3174,0 -10.6299,-5.31739 -10.6299,-10.62989 l 0,-187.79787 c 0,-5.3125 5.3125,-10.62988 10.6299,-10.62988 z"
         style="fill:none;stroke:#000000;stroke-width:1.00440371;stroke-linecap:butt;stroke-linejoin:miter;stroke-miterlimit:10;stroke-opacity:1;display:inline"
         inkscape:connector-curvature="0"
         transform="translate(-568.5,408.98718)" />
      <path
         id="path2998"
         d="m 1430.7377,249.41414 248.0323,0 0,8.85742 -248.0323,0 z m 0,178.93556 248.0323,0 0,8.85743 -248.0323,0 z m -53.1494,-138.18849 8.8574,0 0,106.29884 -8.8574,0 z m 345.4737,0 8.8574,0 0,106.29884 -8.8574,0 z"
         style="fill:none;stroke:#000000;stroke-width:1.00440371;stroke-linecap:butt;stroke-linejoin:miter;stroke-miterlimit:10;stroke-opacity:1;display:inline"
         inkscape:connector-curvature="0"
         transform="translate(-568.5,408.98718)" />
      <path
         id="path3000"
         d="m 1732.8032,343.31063 c 0,7.08985 -10.6299,7.08985 -10.6299,0 0,-7.08496 10.6299,-7.08496 10.6299,0"
         style="fill:none;stroke:#000000;stroke-width:1.00440371;stroke-linecap:butt;stroke-linejoin:miter;stroke-miterlimit:10;stroke-opacity:1;display:inline"
         inkscape:connector-curvature="0"
         transform="translate(-568.5,408.98718)" />
      <path
         id="path3002"
         d="m 1560.0688,253.84285 c 0,7.08496 -10.6299,7.08496 -10.6299,0 0,-7.08496 10.6299,-7.08496 10.6299,0"
         style="fill:none;stroke:#000000;stroke-width:1.00440371;stroke-linecap:butt;stroke-linejoin:miter;stroke-miterlimit:10;stroke-opacity:1;display:inline"
         inkscape:connector-curvature="0"
         transform="translate(-568.5,408.98718)" />
      <path
         id="path3004"
         d="m 1560.0688,432.77842 c 0,7.08984 -10.6299,7.08984 -10.6299,0 0,-7.08496 10.6299,-7.08496 10.6299,0"
         style="fill:none;stroke:#000000;stroke-width:1.00440371;stroke-linecap:butt;stroke-linejoin:miter;stroke-miterlimit:10;stroke-opacity:1;display:inline"
         inkscape:connector-curvature="0"
         transform="translate(-568.5,408.98718)" />
      <flowRoot
         xml:space="preserve"
         id="flowRoot3835-1"
         style="font-size:40px;font-style:normal;font-weight:normal;line-height:125%;letter-spacing:0px;word-spacing:0px;fill:#000000;fill-opacity:1;stroke:none;display:inline;font-family:Sans"
         transform="matrix(-1,0,0,-1,1907.4518,990.73263)"><flowRegion
           id="flowRegion3837-7"><rect
             id="rect3839-4"
             width="320"
             height="60.000008"
             x="759.92188"
             y="201.77251" /></flowRegion><flowPara
           id="flowPara3841-0"
           style="font-size:24px;font-weight:bold;text-align:center;text-anchor:middle;-inkscape-font-specification:Sans Bold">Open Design Games</flowPara></flowRoot>    </g>
  </g>
</svg>
